<svg width="580" height="400" xmlns="http://www.w3.org/2000/svg">
 <!-- Created with Method Draw - http://github.com/duopixel/Method-Draw/ -->
 <g>
  <title>background</title>
  <rect fill="#fff" id="canvas_background" height="402" width="582" y="-1" x="-1"/>
  <g display="none" overflow="visible" y="0" x="0" height="100%" width="100%" id="canvasGrid">
   <rect fill="url(#gridpattern)" stroke-width="0" y="0" x="0" height="100%" width="100%"/>
  </g>
 </g>
 <g>
  <title>Layer 1</title>
  <path id="svg_1" d="m248.790924,85l23.81897,0l25.860626,5.651611l19.055176,7.064514l17.694092,15.541939l12.249756,18.367744l5.444366,19.78064l1.361084,15.541931l4.083252,21.193558l1.361084,18.367737c0.680542,0 -0.680542,18.367737 0.680542,18.367737c1.361084,0 -1.361084,15.541946 -2.041626,15.541946c0.680542,0 -6.124878,16.954819 -6.80542,16.954819c0.680542,0 -6.124908,15.541962 -6.80545,15.541962c0.680542,0 -10.20813,9.89032 -10.888672,9.89032c0.680542,0 -11.569214,8.477417 -12.249756,8.477417c0.680542,0 -10.20813,11.303223 -10.888672,11.303223c0.680542,0 -15.652466,1.412903 -16.333008,1.412903c0.680542,0 -15.652496,-5.651611 -16.333038,-5.651611c0.680542,0 -11.569214,-5.651611 -12.249756,-5.651611c0.680542,0 -14.291382,-5.651611 -14.971924,-5.651611c0.680542,0 -7.485962,-14.129028 -8.166504,-14.129028c0.680542,0 -10.20813,-12.716156 -10.888702,-12.716156c0.680573,0 -7.485947,-14.129013 -8.166489,-14.129013c0.680542,0 -4.763794,-16.954849 -5.444336,-16.954849c0.680542,0 -4.763809,-19.78064 -5.444351,-19.78064c0.680542,0 -2.041626,-24.019348 -2.722168,-24.019348c0.680542,0 0.680542,-19.780655 0,-19.780655c0.680542,0 2.041626,-18.367737 1.361084,-18.367737c0.680542,0 4.763794,-19.780647 4.083252,-19.780647c0.680542,0 8.847061,-21.193542 8.166519,-21.193542c0.680542,0 10.208145,-11.30323 9.527603,-11.30323" stroke-width="1.5" stroke="#000" fill="#213a08"/>
  <path id="svg_2" d="m154.477783,203.470749" opacity="0.5" stroke-opacity="null" stroke-width="1.5" stroke="#000" fill="#213a08"/>
  <path id="svg_4" d="m226.467438,145.537415l-3.99942,4.441025l-2.499634,6.499069l-1.499786,6.998993l-0.999863,5.99913l-0.999847,5.499222l-0.499939,6.998993l0.499939,6.998993l0,5.99913l1.499786,6.499069l1.499771,6.998993l2.499649,7.498917l-0.499924,5.999146l2.499634,5.99913l3.99942,5.499222l2.499649,6.499054c0.499924,0.058319 2.999557,5.557526 2.999557,6.057465c0,0.499924 3.499496,6.998978 2.999573,6.940674c0.499924,0.058304 3.99942,4.557663 3.499496,4.499344c0.499924,0.058319 5.499207,4.057739 4.999283,3.99942c0.499924,0.058319 4.999268,5.557526 4.499359,5.499237c0.499908,0.058289 6.998993,2.058014 6.499069,1.999695c0.499924,0.058319 5.99913,2.557953 5.499191,2.499634c0.499939,0.058319 6.499084,2.058044 5.999146,1.999725c0.499939,0.058319 7.99884,-0.44162 7.498932,-0.499939c0.499908,0.058319 5.999146,-1.441467 5.499207,-1.499786c0.499939,0.058319 6.998993,-1.941406 6.499054,-1.999695c0.499939,0.058289 4.499359,-4.44104 3.99942,-4.499359c0.499939,0.058319 8.498779,-3.441193 7.998871,-3.499512c0.499908,0.058319 5.499207,-4.940948 4.999268,-4.999268c0.499939,0.058319 4.499359,-4.44104 3.99942,-4.499359c0.499939,0.058319 6.998993,-6.44075 6.499084,-6.499054c0.499908,0.058304 1.999695,-9.940262 1.499786,-9.998566c0.499908,0.058304 2.999573,-6.940689 2.499634,-6.998993c0.499939,0.058304 0.999847,-9.940262 0.499939,-9.998566c0.499908,0.058304 0.499908,-8.940399 0,-8.998703c0.499908,0.058304 1.999695,-10.440186 1.499786,-10.498489c0.499908,0.058304 0.999847,-6.940674 0.499908,-6.999008c0.499939,0.058334 0.999847,-6.940659 0.499939,-6.998993c0.499908,0.058334 0,-9.440308 -0.499939,-9.498627c0.499939,0.058319 -3.99942,-7.440598 -4.499359,-7.498917c0.499939,0.058319 -3.499481,-8.44046 -3.99942,-8.498779c0.499939,0.058319 -1.499786,-8.44046 -1.999695,-8.498779c0.499908,0.058319 -3.999451,-4.441025 -4.499359,-4.499359c0.499908,0.058334 -3.99942,-4.441025 -4.499359,-4.499359c0.499939,0.058334 -4.999268,-3.441162 -5.499207,-3.499496c0.499939,0.058334 -5.499207,-2.441315 -5.999146,-2.499634c0.499939,0.058319 -5.499207,-2.441315 -5.999146,-2.499634c0.499939,0.058319 -5.999115,-1.941391 -6.499054,-1.999725c0.499939,0.058334 -4.999268,-0.941528 -5.499207,-0.999847c0.499939,0.058319 -7.498932,-0.441605 -7.99884,-0.499939c0.499908,0.058334 -6.998993,0.058334 -7.498932,0c0.499939,0.058334 -5.999161,1.058197 -6.499069,0.999863c0.499908,0.058334 -6.499084,2.058044 -6.998993,1.99971c0.499908,0.058334 -4.499374,2.557968 -4.999283,2.499649c0.499908,0.058319 -5.499222,3.557816 -5.99913,3.499496c0.499908,0.058319 -3.499512,3.057892 -3.999435,2.999557" fill-opacity="null" stroke-opacity="null" stroke-width="1.5" stroke="#000" fill="#a2d372"/>
  <path id="svg_7" d="m337.993805,191.0354l3.666626,-0.038895l4.999908,0.999985l3.666595,1.999969l1.999969,3.999924l1.999939,4.333252l1.666656,5.333237l0.666656,5.333237l0,5.333237l-1,4.999908l-0.666656,4.999908l-1.666626,5.333237l-0.999969,5.333237l-1,4.999908l-1.333313,3.999924l-1.333313,5.666565l-0.666656,4.333237l-2.333282,2.666626l-1.333313,4.333252l-3.333252,2.333282l-3.333282,0.666656l-3.333282,-1.666626l-2.999939,-1.999969l-2.666626,-3.666595l-1.333282,-4.999908l-1,-4.999908l-0.666656,-5.333237l-0.333313,-6.333206l0,-5.999893l0.666656,-5.999893l1.333313,-7.333206l1.666626,-6.666534c0,0.038879 1.333313,-5.62767 1.333313,-5.960999c0,-0.333328 2.333282,-5.666565 2.333282,-5.70546c0,0.038895 1.666626,-5.294342 1.666626,-5.333237c0,0.038895 1.999969,-2.627716 1.999969,-2.666611" fill-opacity="null" stroke-opacity="null" stroke-width="1.5" stroke="#000" fill="#510505"/>
  <path id="svg_11" d="m134.330887,53.704575" opacity="0.5" fill-opacity="null" stroke-opacity="null" stroke-width="1.5" stroke="#000" fill="#f4eded"/>
  <path id="svg_12" d="m160.330399,76.370827" opacity="0.5" fill-opacity="null" stroke-opacity="null" stroke-width="1.5" stroke="#000" fill="#f4eded"/>
  <path id="svg_13" d="m199.329697,87.0373l2.999939,2.961052l2.666611,4.33326c0,0.038887 0.666656,3.705482 0.999985,4.038811c0.333328,0.333328 1.999969,4.333252 1.999969,4.66658c0,0.333328 2.666611,4.33326 2.666611,4.294365c0,0.038895 0.666656,5.038803 0.666656,4.999908c0,0.038895 0.666656,4.038818 0.666656,3.999931c0,0.038887 0.666656,5.705452 0.666656,5.666565c0,0.038887 -0.999985,5.038795 -0.999985,4.999908c0,0.038887 -0.999985,6.038773 -0.999985,5.999893c0,0.038879 -1.333298,1.372284 -1.999954,5.333237" opacity="0.5" fill-opacity="null" stroke-opacity="null" stroke-width="1.5" stroke="#000" fill="#f4eded"/>
  <path id="svg_15" d="m207.662872,141.369644l-0.999985,6.294327l-0.333328,5.333237l0,5.333237c0,0.038879 -0.666656,6.038773 -0.999985,6.372101c-0.333328,0.333328 0.333328,6.333221 0.333328,6.294327c0,0.038895 0,6.038788 0,5.999893c0,0.038895 0.666656,5.70546 0.666656,5.666565c0,0.038895 0,-9.960922 0,5.999893c0,0.038879 0.333328,5.372101 0.333328,5.333237c0,0.038864 0.666656,6.372086 0.666656,6.333206c0,0.038879 1.333313,5.372116 1.333313,5.333237c0,0.038879 -0.666672,-1.62767 0.999969,4.999908c0,0.03891 1.999969,8.038757 1.999969,7.999863" opacity="0.5" fill-opacity="null" stroke-opacity="null" stroke-width="1.5" stroke="#000" fill="#f4eded"/>
  <path id="svg_16" d="m212.329453,220.701523l0.666656,3.294388l0.999985,4.66658l1.333298,3.999924l0.999985,3.999924l1.666641,4.66658c0,0.038895 1.999969,4.372147 1.999969,4.705475c-0.000015,0.333313 1.999954,3.999908 1.999954,3.961029c0,0.038879 1.666641,5.038788 1.666641,4.999908c0,0.038879 1.999954,4.372131 1.999954,4.333252c0,0.038879 2.999954,4.038818 2.999954,3.999939c0,0.038879 2.999939,3.038818 2.999939,2.999939" opacity="0.5" fill-opacity="null" stroke-opacity="null" stroke-width="1.5" stroke="#000" fill="#f4eded"/>
  <path id="svg_18" d="m234.329056,270.033936l3.333267,3.627716l1.999954,3.666595l1.666641,4.666595l0.333328,4.666595l-0.999985,3.666595l-2.666611,3.333252l-2.999954,2.333313l-3.999924,1.333313" fill-opacity="null" stroke-opacity="null" stroke-width="1.5" stroke="#000" fill="#f4eded"/>
  <path id="svg_20" d="m238.662308,303.033356l3.333267,-3.372162l3.333267,-1.666656c0,0.03891 3.666611,-1.627747 3.999939,-1.627747c0.333313,0.000031 3.666595,-0.333313 3.666595,-0.372192c0,0.038879 3.999924,0.038879 3.999924,0c0,0.038879 3.666595,0.372223 3.666595,0.333313c0,0.03891 4.999908,2.038879 4.999908,1.999969c0,0.03891 5.333252,2.372192 5.333252,2.333282c0,0.03891 3.333252,2.705505 3.666595,2.705505c0.333313,0.000031 5.999878,1.999969 5.999878,1.96109c0,0.038879 4.666595,1.038879 4.666595,0.999969c0,0.038879 3.999908,1.038879 4.333252,1.372192c0.333313,0.333344 5.999878,1 5.666565,0.666656c-0.333344,-0.333313 4.333252,0.000031 4.333252,-0.038879c0,0.038879 3.999908,-0.294434 4.666565,-0.294434c0.666656,0 4.333252,0 4.333252,-0.03891c0,0.03891 4.333252,-0.96106 4.333252,-0.999969c0,0.03891 4.333282,-1.627747 4.333282,-1.666626c0,0.038879 3.666595,-2.96106 3.666595,-2.999939" fill-opacity="null" stroke-opacity="null" stroke-width="1.5" stroke="#000" fill="#f4eded"/>
  <path id="svg_21" d="m322.327454,301.033386l2.999939,-2.705505l3.333252,-2.333282l3.666626,-2.666626l4.333252,-0.999969l4.999908,1.666626l3.999908,1.666626l5.666565,1.999969l3.666595,1.999969l3.666595,0.999969" fill-opacity="null" stroke-opacity="null" stroke-width="1.5" stroke="#000" fill="#f4eded"/>
  <path id="svg_22" d="m347.326996,285.033691l2.333282,2.294403l2.666626,1.333282l3.999908,1.666656l3.333282,1.333313l2.666626,0.666656" fill-opacity="null" stroke-opacity="null" stroke-width="1.5" stroke="#000" fill="#f4eded"/>
  <path id="svg_23" d="m346.993652,283.367035l1.333313,-3.705475l1.666626,-2.999939l2.333313,-3.666626l3.333252,-4.666565l0.666656,-5.999908l1.666626,-6.333206l1.999969,-4.999908l1.999969,-5.666565l1.666626,-5.666565l1.333313,-5.333221l0.333344,-5.333237l0.666656,-5.666565l0.333313,-5.666565l-0.666656,-5.999893" fill-opacity="null" stroke-opacity="null" stroke-width="1.5" stroke="#000" fill="#f4eded"/>
  <path id="svg_24" d="m365.32666,209.701721l-0.333344,-4.372147l-0.666656,-4.333252l-0.333313,-4.999908c0,0.038895 0,-3.961029 0,-4.294357c0,-0.333328 0,-4.999908 0,-5.038803c0,0.038895 -0.999969,-4.294357 -0.999969,-4.333252c0,0.038895 -1.999969,-4.294357 -1.999969,-4.333252c0,0.038895 -1,-4.627686 -1,-4.66658c0,0.038879 -0.666656,-5.960999 -0.999969,-5.960999c-0.333344,-0.000015 -0.000061,-1.333389 -0.666656,-5.038803c0,0.038879 0,-2.294403 0,-2.333298" fill-opacity="null" stroke-opacity="null" stroke-width="1.5" stroke="#000" fill="#f4eded"/>
  <path id="svg_25" d="m357.993469,158.702652l-0.333344,-2.705505l0,-4.333252c0,0.038895 -1.333313,-3.294388 -1.333313,-3.627716c0,-0.333328 -0.999969,-4.999908 -0.999969,-5.038788c0,0.038879 -0.666656,-3.961044 -0.666656,-3.999939c0,0.038895 -1,-3.961029 -1,-3.999924c0,0.038895 -0.999969,-3.961029 -0.999969,-3.999924c0,0.038895 -1.999969,-4.294365 -1.999969,-4.333252c0,0.038887 -1.999969,-4.627693 -1.999969,-4.66658c0,0.038887 -1.333282,-3.961044 -1.333282,-3.999931c0,0.038887 -1.666656,-5.294342 -1.666656,-5.333237" fill-opacity="null" stroke-opacity="null" stroke-width="1.5" stroke="#000" fill="#f4eded"/>
  <path id="svg_26" d="m343.327057,111.664627c0.666656,0 -4.666595,-3.333275 -4.666595,-3.666603c0,0.333328 -2.666595,-3.666595 -2.666595,-3.999924c0,0.333328 -2.999969,-2.999947 -2.999969,-3.333275c0,0.333328 -1.999939,-2.666618 -1.999939,-2.999947c0,0.333328 -1.999969,-2.666618 -1.999969,-2.999947c0,0.333328 0,-2.666618 0.333313,-2.999947c0.333344,-0.333321 0.333344,-4.999901 0.333344,-5.333229c0,0.333328 0.666656,-3.999931 0.666656,-4.33326c0,0.333328 2.666595,-2.666611 2.666595,-2.999939c0,0.333328 3.666626,-2.33329 3.666626,-2.666618c0,0.333328 4.333252,-1.999962 4.333252,-2.33329c0,0.333328 1.333313,-1.999969 1.333313,-2.33329" fill-opacity="null" stroke-opacity="null" stroke-width="1.5" stroke="#000" fill="#f4eded"/>
  <path id="svg_27" d="m332.660583,68.665413l-1.333313,2.33329l-1.333313,2.666618l-1.999969,3.333267l-2.333282,2.999947l-2.666626,3.333275c0,0.333328 -4.333252,0.666656 -4.333252,0.999977c0,0.333328 -4.666565,0.666656 -4.666565,0.333328c0,0.333328 -4.999908,0 -4.999908,-0.333321c0,0.333321 -6.666534,-0.999985 -6.666534,-1.333313c0,0.333328 -5.666565,-0.999985 -5.666565,-1.333305c0,0.333321 -4.666595,-0.666656 -4.666595,-0.999985c0,0.333328 -3.333282,-0.999985 -3.333282,-1.333305c0,0.333321 -6.999847,0.333321 -6.999847,0c0,0.333321 -7.999878,-0.333328 -7.999878,-0.666656c0,0.333328 -7.333191,-0.666656 -7.333191,-0.999985c0,0.333328 -5.333221,0 -5.333221,-0.333328c0,0.333328 -6.999878,0.333328 -6.999878,0c0,0.333328 -7.666534,0.999985 -7.666534,0.666656c0,0.333328 -3.333267,3.999924 -3.333267,3.666603c0,0.333321 -4.66658,2.999939 -4.66658,2.666618" fill-opacity="null" stroke-opacity="null" stroke-width="1.5" stroke="#000" fill="#f4eded"/>
  <path id="svg_28" d="m234.995712,87.99839l-3.333282,2.666618l-2.999939,1.999962l-2.999954,3.333275l-2.666611,0.666656l-2.666626,1.666634l-2.666611,-1.666634l-2.666626,-1.666641l-2.333282,-2.33329l-2.333298,-1.666634c0,0.333328 -1.333298,-1.666641 -1.333298,-1.999962c0,-0.333328 -0.999985,-3.999931 -0.999985,-4.33326" fill-opacity="null" stroke-opacity="null" stroke-width="1.5" stroke="#000" fill="#f4eded"/>
 </g>
</svg>